<svg xmlns="http://www.w3.org/2000/svg" width="72" height="72" viewBox="0 0 72 72">
  <defs>
    <linearGradient id="g2" x1="0" y1="0" x2="1" y2="1">
      <stop offset="0" stop-color="#5b3dff"></stop>
      <stop offset="1" stop-color="#24d3ee"></stop>
    </linearGradient>
  </defs>
  <rect width="72" height="72" rx="12" fill="none"></rect>
  <path d="M18 28c-5 0-9 4-9 9 0 8 6 15 14 15 5.2 0 7.3-1.8 13-1.8S44.8 52 50 52c8 0 14-7 14-15 0-5-4-9-9-9-3.2 0-6.2 1.7-9.7 4.3-2.3 1.7-6.3 1.7-8.6 0C24.2 29.7 21.2 28 18 28z" fill="url(#g2)"></path>
  <rect x="22" y="36" width="10" height="4" rx="2" fill="#0b0d12"></rect>
  <rect x="26" y="32" width="4" height="12" rx="2" fill="#0b0d12"></rect>
  <circle cx="50" cy="37" r="2.6" fill="#0b0d12"></circle>
  <circle cx="55" cy="41" r="2.6" fill="#0b0d12"></circle>
  <circle cx="45" cy="41" r="2.6" fill="#0b0d12"></circle>
  <circle cx="50" cy="45" r="2.6" fill="#0b0d12"></circle>
  <path d="M40 22l-4 10h6l-2 8 10-12h-6l2-6z" fill="#16f195"></path>
</svg>
